# xmcd
#
# Track frame offsets:
#	150
#	26114
#	44618
#	65599
#	88578
#	126202
#	144761
#	164859
#	184112
#	207569
#	228695
#	250472
#	267871
#	290862
#
# Disc length: 4166 seconds
#
# Revision: 1
# Processed by: cddbd v1.5.2PL0 Copyright (c) Steve Scherf et al.
# Submitted via: audiograbber 1.83.01
#
DISCID=e410440e
DTITLE=Chaka Khan - The Platinum Collection
DYEAR=2006
DGENRE=R&B
TTITLE0=I Feel For You
TTITLE1=I'm Every Woman
TTITLE2=Ain't Nobody
TTITLE3=This Is My Night (Remix Version)
TTITLE4=Eye To Eye (Remix Version)
TTITLE5=Papillon (Hot Butterfly)
TTITLE6=I Know You, I Live You
TTITLE7=Love Of A Lifetime
TTITLE8=The End Of A Love Affair
TTITLE9=Love You All My Lifetime
TTITLE10=Don't Look At Me That Way
TTITLE11=What Cha' Gonna Do For Me
TTITLE12=Every Little Thing
TTITLE13=Through The Fire
EXTD=
EXTT0=
EXTT1=
EXTT2=
EXTT3=
EXTT4=
EXTT5=
EXTT6=
EXTT7=
EXTT8=
EXTT9=
EXTT10=
EXTT11=
EXTT12=
EXTT13=
PLAYORDER=
